# xmcd
# Copyright (C) 1995-1998 Ti Kan
#
# Track frame offsets:
#       150
#       62650
#       177678
#
# Disc length: 3445 seconds
#
# Revision: 0
# Processed by: cddbd v1.5.2PL0 Copyright (c) Steve Scherf et al.
# Submitted via: CD-Transfer v1.0
#
DISCID=260d7303
DTITLE=Mauro Grossud - 
DYEAR=07
DGENRE=
TTITLE0=Fasnacht Langenthal1
TTITLE1=Fasnacht Langenthal2
TTITLE2=Fasnacht Langenthal3
EXTD=
EXTT0=
EXTT1=
EXTT2=
PLAYORDER=
